<svg viewBox="0 0 1560 1020" xmlns="http://www.w3.org/2000/svg" font-family="'Segoe UI', Arial, sans-serif">
  <defs>
    <marker id="arr" markerWidth="8" markerHeight="8" refX="6" refY="3" orient="auto"><path d="M0,0 L0,6 L8,3 z" fill="#555"/></marker>
    <marker id="arrB" markerWidth="8" markerHeight="8" refX="6" refY="3" orient="auto"><path d="M0,0 L0,6 L8,3 z" fill="#2563EB"/></marker>
    <marker id="arrBR" markerWidth="8" markerHeight="8" refX="2" refY="3" orient="auto-start-reverse"><path d="M0,0 L0,6 L8,3 z" fill="#2563EB"/></marker>
    <marker id="arrO" markerWidth="8" markerHeight="8" refX="6" refY="3" orient="auto"><path d="M0,0 L0,6 L8,3 z" fill="#EA580C"/></marker>
    <marker id="arrOR" markerWidth="8" markerHeight="8" refX="2" refY="3" orient="auto-start-reverse"><path d="M0,0 L0,6 L8,3 z" fill="#EA580C"/></marker>
    <marker id="arrP" markerWidth="8" markerHeight="8" refX="6" refY="3" orient="auto"><path d="M0,0 L0,6 L8,3 z" fill="#7C3AED"/></marker>
    <filter id="sh"><feDropShadow dx="0" dy="1" stdDeviation="2" flood-color="#00000010"/></filter>
  </defs>

  <rect width="1560" height="1020" fill="#F8FAFC"/>

  <!-- Title -->
  <rect x="0" y="0" width="1560" height="44" fill="#0F172A"/>
  <text x="780" y="18" text-anchor="middle" font-size="14" font-weight="700" fill="white">Protex AI — Man-in-the-Middle Observability Platform</text>
  <text x="780" y="36" text-anchor="middle" font-size="9.5" fill="#94A3B8">Edge Devices → Regional Databases ←→ VPC Peering ←→ Grafana (AMG) → Engineering Teams</text>

  <!-- Column headers -->
  <text x="228" y="62" text-anchor="middle" font-size="10.5" font-weight="600" fill="#475569">REGIONAL STACKS</text>
  <text x="820" y="62" text-anchor="middle" font-size="10.5" font-weight="600" fill="#1E40AF">MAN-IN-MIDDLE PLATFORM</text>
  <text x="1400" y="62" text-anchor="middle" font-size="10.5" font-weight="600" fill="#475569">ENGINEERING TEAMS</text>

  <!-- ══ EU REGION ══ -->
  <rect x="10" y="72" width="430" height="166" rx="8" fill="white" stroke="#6EE7B7" stroke-width="1.5" stroke-dasharray="7,3" filter="url(#sh)"/>
  <rect x="10" y="72" width="80" height="18" rx="4" fill="#059669"/>
  <text x="50" y="85" text-anchor="middle" font-size="9" fill="white" font-weight="700">EU REGION</text>
  <rect x="18" y="96" width="72" height="16" rx="3" fill="#F0FDF4" stroke="#6EE7B7" stroke-width="1"/>
  <text x="54" y="108" text-anchor="middle" font-size="7.5" fill="#065F46">Device 001</text>
  <rect x="18" y="116" width="72" height="16" rx="3" fill="#F0FDF4" stroke="#6EE7B7" stroke-width="1"/>
  <text x="54" y="128" text-anchor="middle" font-size="7.5" fill="#065F46">Device 002</text>
  <rect x="18" y="136" width="72" height="16" rx="3" fill="#F0FDF4" stroke="#6EE7B7" stroke-width="1"/>
  <text x="54" y="148" text-anchor="middle" font-size="7.5" fill="#065F46">Device N</text>
  <text x="54" y="175" text-anchor="middle" font-size="7" fill="#6B7280" font-style="italic">Linux · AI · MQTT</text>
  <text x="54" y="185" text-anchor="middle" font-size="7" fill="#6B7280" font-style="italic">Node Exporter</text>
  <rect x="114" y="106" width="80" height="40" rx="5" fill="#FFF7ED" stroke="#FB923C" stroke-width="1.2"/>
  <text x="154" y="122" text-anchor="middle" font-size="8.5" font-weight="600" fill="#9A3412">MQTT</text>
  <text x="154" y="135" text-anchor="middle" font-size="7.5" fill="#9A3412">Broker</text>
  <rect x="218" y="106" width="80" height="40" rx="5" fill="#FFF7ED" stroke="#FB923C" stroke-width="1.2"/>
  <text x="258" y="122" text-anchor="middle" font-size="8.5" font-weight="600" fill="#9A3412">Synchro</text>
  <text x="258" y="135" text-anchor="middle" font-size="7.5" fill="#9A3412">Fleet</text>
  <rect x="322" y="100" width="110" height="52" rx="5" fill="#EFF6FF" stroke="#2563EB" stroke-width="1.5"/>
  <text x="377" y="118" text-anchor="middle" font-size="9" font-weight="700" fill="#1E40AF">Aurora PG</text>
  <text x="377" y="131" text-anchor="middle" font-size="8" fill="#1E40AF">EU Cluster</text>
  <text x="377" y="143" text-anchor="middle" font-size="7" fill="#6B7280">10.2.0.0/16 · GDPR</text>
  <line x1="90" y1="118" x2="114" y2="126" stroke="#555" stroke-width="1.3" marker-end="url(#arr)"/>
  <line x1="90" y1="128" x2="114" y2="126" stroke="#555" stroke-width="1.3"/>
  <line x1="90" y1="144" x2="114" y2="130" stroke="#555" stroke-width="1.3"/>
  <line x1="194" y1="126" x2="218" y2="126" stroke="#555" stroke-width="1.3" marker-end="url(#arr)"/>
  <line x1="298" y1="126" x2="322" y2="126" stroke="#555" stroke-width="1.3" marker-end="url(#arr)"/>

  <!-- ══ US REGION ══ -->
  <rect x="10" y="252" width="430" height="152" rx="8" fill="white" stroke="#FCD34D" stroke-width="1.5" stroke-dasharray="7,3" filter="url(#sh)"/>
  <rect x="10" y="252" width="72" height="18" rx="4" fill="#D97706"/>
  <text x="46" y="265" text-anchor="middle" font-size="9" fill="white" font-weight="700">US REGION</text>
  <rect x="18" y="276" width="72" height="15" rx="3" fill="#FFFBEB" stroke="#FCD34D" stroke-width="1"/>
  <text x="54" y="287" text-anchor="middle" font-size="7.5" fill="#92400E">Device 001</text>
  <rect x="18" y="295" width="72" height="15" rx="3" fill="#FFFBEB" stroke="#FCD34D" stroke-width="1"/>
  <text x="54" y="306" text-anchor="middle" font-size="7.5" fill="#92400E">Device 002</text>
  <rect x="18" y="314" width="72" height="15" rx="3" fill="#FFFBEB" stroke="#FCD34D" stroke-width="1"/>
  <text x="54" y="325" text-anchor="middle" font-size="7.5" fill="#92400E">Device N</text>
  <rect x="114" y="282" width="80" height="40" rx="5" fill="#FFF7ED" stroke="#FB923C" stroke-width="1.2"/>
  <text x="154" y="298" text-anchor="middle" font-size="8.5" font-weight="600" fill="#9A3412">MQTT</text>
  <text x="154" y="311" text-anchor="middle" font-size="7.5" fill="#9A3412">Broker</text>
  <rect x="218" y="282" width="80" height="40" rx="5" fill="#FFF7ED" stroke="#FB923C" stroke-width="1.2"/>
  <text x="258" y="298" text-anchor="middle" font-size="8.5" font-weight="600" fill="#9A3412">Synchro</text>
  <text x="258" y="311" text-anchor="middle" font-size="7.5" fill="#9A3412">Fleet</text>
  <rect x="322" y="276" width="110" height="52" rx="5" fill="#EFF6FF" stroke="#2563EB" stroke-width="1.5"/>
  <text x="377" y="294" text-anchor="middle" font-size="9" font-weight="700" fill="#1E40AF">Aurora PG</text>
  <text x="377" y="307" text-anchor="middle" font-size="8" fill="#1E40AF">US Cluster</text>
  <text x="377" y="319" text-anchor="middle" font-size="7" fill="#6B7280">10.1.0.0/16</text>
  <line x1="90" y1="294" x2="114" y2="302" stroke="#555" stroke-width="1.3" marker-end="url(#arr)"/>
  <line x1="90" y1="305" x2="114" y2="302" stroke="#555" stroke-width="1.3"/>
  <line x1="90" y1="320" x2="114" y2="308" stroke="#555" stroke-width="1.3"/>
  <line x1="194" y1="302" x2="218" y2="302" stroke="#555" stroke-width="1.3" marker-end="url(#arr)"/>
  <line x1="298" y1="302" x2="322" y2="302" stroke="#555" stroke-width="1.3" marker-end="url(#arr)"/>

  <!-- ══ CA REGION ══ -->
  <rect x="10" y="418" width="430" height="152" rx="8" fill="white" stroke="#93C5FD" stroke-width="1.5" stroke-dasharray="7,3" filter="url(#sh)"/>
  <rect x="10" y="418" width="90" height="18" rx="4" fill="#2563EB"/>
  <text x="55" y="431" text-anchor="middle" font-size="9" fill="white" font-weight="700">CA REGION</text>
  <rect x="18" y="442" width="72" height="15" rx="3" fill="#EFF6FF" stroke="#93C5FD" stroke-width="1"/>
  <text x="54" y="453" text-anchor="middle" font-size="7.5" fill="#1E40AF">Device 001</text>
  <rect x="18" y="461" width="72" height="15" rx="3" fill="#EFF6FF" stroke="#93C5FD" stroke-width="1"/>
  <text x="54" y="472" text-anchor="middle" font-size="7.5" fill="#1E40AF">Device 002</text>
  <rect x="18" y="480" width="72" height="15" rx="3" fill="#EFF6FF" stroke="#93C5FD" stroke-width="1"/>
  <text x="54" y="491" text-anchor="middle" font-size="7.5" fill="#1E40AF">Device N</text>
  <rect x="114" y="448" width="80" height="40" rx="5" fill="#FFF7ED" stroke="#FB923C" stroke-width="1.2"/>
  <text x="154" y="464" text-anchor="middle" font-size="8.5" font-weight="600" fill="#9A3412">MQTT</text>
  <text x="154" y="477" text-anchor="middle" font-size="7.5" fill="#9A3412">Broker</text>
  <rect x="218" y="448" width="80" height="40" rx="5" fill="#FFF7ED" stroke="#FB923C" stroke-width="1.2"/>
  <text x="258" y="464" text-anchor="middle" font-size="8.5" font-weight="600" fill="#9A3412">Synchro</text>
  <text x="258" y="477" text-anchor="middle" font-size="7.5" fill="#9A3412">Fleet</text>
  <rect x="322" y="442" width="110" height="52" rx="5" fill="#EFF6FF" stroke="#2563EB" stroke-width="1.5"/>
  <text x="377" y="460" text-anchor="middle" font-size="9" font-weight="700" fill="#1E40AF">Aurora PG</text>
  <text x="377" y="473" text-anchor="middle" font-size="8" fill="#1E40AF">CA Cluster</text>
  <text x="377" y="485" text-anchor="middle" font-size="7" fill="#6B7280">10.3.0.0/16 · PIPEDA</text>
  <line x1="90" y1="460" x2="114" y2="468" stroke="#555" stroke-width="1.3" marker-end="url(#arr)"/>
  <line x1="90" y1="471" x2="114" y2="468" stroke="#555" stroke-width="1.3"/>
  <line x1="90" y1="486" x2="114" y2="474" stroke="#555" stroke-width="1.3"/>
  <line x1="194" y1="468" x2="218" y2="468" stroke="#555" stroke-width="1.3" marker-end="url(#arr)"/>
  <line x1="298" y1="468" x2="322" y2="468" stroke="#555" stroke-width="1.3" marker-end="url(#arr)"/>

  <!-- ══ APAC REGION ══ -->
  <rect x="10" y="584" width="430" height="152" rx="8" fill="white" stroke="#FCA5A5" stroke-width="1.5" stroke-dasharray="7,3" filter="url(#sh)"/>
  <rect x="10" y="584" width="96" height="18" rx="4" fill="#DC2626"/>
  <text x="58" y="597" text-anchor="middle" font-size="9" fill="white" font-weight="700">APAC REGION</text>
  <rect x="18" y="608" width="72" height="15" rx="3" fill="#FEF2F2" stroke="#FCA5A5" stroke-width="1"/>
  <text x="54" y="619" text-anchor="middle" font-size="7.5" fill="#991B1B">Device 001</text>
  <rect x="18" y="627" width="72" height="15" rx="3" fill="#FEF2F2" stroke="#FCA5A5" stroke-width="1"/>
  <text x="54" y="638" text-anchor="middle" font-size="7.5" fill="#991B1B">Device 002</text>
  <rect x="18" y="646" width="72" height="15" rx="3" fill="#FEF2F2" stroke="#FCA5A5" stroke-width="1"/>
  <text x="54" y="657" text-anchor="middle" font-size="7.5" fill="#991B1B">Device N</text>
  <rect x="114" y="614" width="80" height="40" rx="5" fill="#FFF7ED" stroke="#FB923C" stroke-width="1.2"/>
  <text x="154" y="630" text-anchor="middle" font-size="8.5" font-weight="600" fill="#9A3412">MQTT</text>
  <text x="154" y="643" text-anchor="middle" font-size="7.5" fill="#9A3412">Broker</text>
  <rect x="218" y="614" width="80" height="40" rx="5" fill="#FFF7ED" stroke="#FB923C" stroke-width="1.2"/>
  <text x="258" y="630" text-anchor="middle" font-size="8.5" font-weight="600" fill="#9A3412">Synchro</text>
  <text x="258" y="643" text-anchor="middle" font-size="7.5" fill="#9A3412">Fleet</text>
  <rect x="322" y="608" width="110" height="52" rx="5" fill="#EFF6FF" stroke="#2563EB" stroke-width="1.5"/>
  <text x="377" y="626" text-anchor="middle" font-size="9" font-weight="700" fill="#1E40AF">Aurora PG</text>
  <text x="377" y="639" text-anchor="middle" font-size="8" fill="#1E40AF">APAC Cluster</text>
  <text x="377" y="651" text-anchor="middle" font-size="7" fill="#6B7280">10.4.0.0/16</text>
  <line x1="90" y1="626" x2="114" y2="634" stroke="#555" stroke-width="1.3" marker-end="url(#arr)"/>
  <line x1="90" y1="637" x2="114" y2="634" stroke="#555" stroke-width="1.3"/>
  <line x1="90" y1="652" x2="114" y2="640" stroke="#555" stroke-width="1.3"/>
  <line x1="194" y1="634" x2="218" y2="634" stroke="#555" stroke-width="1.3" marker-end="url(#arr)"/>
  <line x1="298" y1="634" x2="322" y2="634" stroke="#555" stroke-width="1.3" marker-end="url(#arr)"/>

  <!-- ══ VPC PEERING ARROWS ══ -->
  <line x1="432" y1="126" x2="550" y2="280" stroke="#2563EB" stroke-width="2" stroke-dasharray="8,3" marker-end="url(#arrB)" marker-start="url(#arrBR)"/>
  <rect x="454" y="182" width="88" height="26" rx="4" fill="white" stroke="#2563EB" stroke-width="1"/>
  <text x="498" y="193" text-anchor="middle" font-size="7.5" font-weight="600" fill="#1E40AF">VPC Peering</text>
  <text x="498" y="203" text-anchor="middle" font-size="7" fill="#555">central ↔ eu</text>

  <line x1="432" y1="302" x2="550" y2="360" stroke="#2563EB" stroke-width="2" stroke-dasharray="8,3" marker-end="url(#arrB)" marker-start="url(#arrBR)"/>
  <rect x="454" y="322" width="88" height="26" rx="4" fill="white" stroke="#2563EB" stroke-width="1"/>
  <text x="498" y="333" text-anchor="middle" font-size="7.5" font-weight="600" fill="#1E40AF">VPC Peering</text>
  <text x="498" y="343" text-anchor="middle" font-size="7" fill="#555">central ↔ us</text>

  <line x1="432" y1="468" x2="550" y2="440" stroke="#2563EB" stroke-width="2" stroke-dasharray="8,3" marker-end="url(#arrB)" marker-start="url(#arrBR)"/>
  <rect x="454" y="446" width="88" height="26" rx="4" fill="white" stroke="#2563EB" stroke-width="1"/>
  <text x="498" y="457" text-anchor="middle" font-size="7.5" font-weight="600" fill="#1E40AF">VPC Peering</text>
  <text x="498" y="467" text-anchor="middle" font-size="7" fill="#555">central ↔ ca</text>

  <line x1="432" y1="634" x2="550" y2="520" stroke="#2563EB" stroke-width="2" stroke-dasharray="8,3" marker-end="url(#arrB)" marker-start="url(#arrBR)"/>
  <rect x="454" y="564" width="88" height="26" rx="4" fill="white" stroke="#2563EB" stroke-width="1"/>
  <text x="498" y="575" text-anchor="middle" font-size="7.5" font-weight="600" fill="#1E40AF">VPC Peering</text>
  <text x="498" y="585" text-anchor="middle" font-size="7" fill="#555">central ↔ apac</text>

  <!-- ══ PRIMARY PLATFORM (eu-west-1) ══ -->
  <rect x="548" y="72" width="590" height="570" rx="12" fill="#F0F9FF" stroke="#2563EB" stroke-width="2" filter="url(#sh)"/>
  <rect x="548" y="72" width="590" height="30" rx="12" fill="#1E40AF"/>
  <rect x="548" y="88" width="590" height="14" fill="#1E40AF"/>
  <text x="843" y="91" text-anchor="middle" font-size="11" font-weight="700" fill="white">PRIMARY — eu-west-1 (Ireland) · 10.0.0.0/16</text>
  <rect x="558" y="95" width="48" height="13" rx="3" fill="#059669"/>
  <text x="582" y="105" text-anchor="middle" font-size="7.5" fill="white" font-weight="700">ACTIVE</text>

  <!-- AMP -->
  <rect x="560" y="112" width="188" height="88" rx="7" fill="white" stroke="#DC2626" stroke-width="1.3" filter="url(#sh)"/>
  <rect x="560" y="112" width="188" height="20" rx="7" fill="#DC2626"/>
  <rect x="560" y="124" width="188" height="8" fill="#DC2626"/>
  <text x="654" y="126" text-anchor="middle" font-size="9" font-weight="700" fill="white">Amazon Managed Prometheus</text>
  <text x="654" y="144" text-anchor="middle" font-size="7.5" fill="#374151">Edge device metrics (remote_write)</text>
  <text x="654" y="156" text-anchor="middle" font-size="7.5" fill="#374151">Recording rules · Alert Manager</text>
  <text x="654" y="168" text-anchor="middle" font-size="7.5" fill="#374151">Edge alerts → SNS → PagerDuty</text>
  <text x="654" y="192" text-anchor="middle" font-size="7" fill="#DC2626">KMS encrypted</text>

  <!-- Grafana -->
  <rect x="560" y="212" width="566" height="200" rx="8" fill="white" stroke="#7C3AED" stroke-width="2" filter="url(#sh)"/>
  <rect x="560" y="212" width="566" height="22" rx="8" fill="#7C3AED"/>
  <rect x="560" y="226" width="566" height="8" fill="#7C3AED"/>
  <text x="843" y="228" text-anchor="middle" font-size="11" font-weight="700" fill="white">Amazon Managed Grafana (AMG) — Grafana IS the Access Layer</text>
  <text x="843" y="250" text-anchor="middle" font-size="8.5" fill="#374151">Engineers log in via AWS SSO · RBAC per team · No intermediate API · No custom code</text>

  <rect x="570" y="260" width="166" height="56" rx="5" fill="#EFF6FF" stroke="#2563EB" stroke-width="1.2"/>
  <text x="653" y="276" text-anchor="middle" font-size="8.5" font-weight="600" fill="#1E40AF">PostgreSQL Data Sources</text>
  <text x="653" y="289" text-anchor="middle" font-size="7.5" fill="#374151">Aurora-EU · Aurora-US</text>
  <text x="653" y="301" text-anchor="middle" font-size="7.5" fill="#374151">Aurora-CA · Aurora-APAC</text>
  <text x="653" y="312" text-anchor="middle" font-size="7" fill="#6B7280">grafana_data_source (Terraform)</text>

  <rect x="746" y="260" width="166" height="56" rx="5" fill="#FEF3C7" stroke="#D97706" stroke-width="1.2"/>
  <text x="829" y="276" text-anchor="middle" font-size="8.5" font-weight="600" fill="#92400E">AMP Data Source</text>
  <text x="829" y="289" text-anchor="middle" font-size="7.5" fill="#374151">Edge + infra metrics</text>
  <text x="829" y="301" text-anchor="middle" font-size="7.5" fill="#374151">Per-region dashboards</text>

  <rect x="922" y="260" width="166" height="56" rx="5" fill="#F5F3FF" stroke="#7C3AED" stroke-width="1.2"/>
  <text x="1005" y="276" text-anchor="middle" font-size="8.5" font-weight="600" fill="#5B21B6">CloudWatch + X-Ray</text>
  <text x="1005" y="289" text-anchor="middle" font-size="7.5" fill="#374151">AWS metrics · peering events</text>
  <text x="1005" y="301" text-anchor="middle" font-size="7.5" fill="#374151">Distributed traces</text>

  <rect x="570" y="326" width="518" height="36" rx="4" fill="#F0FDF4" stroke="#6EE7B7" stroke-width="1"/>
  <text x="829" y="340" text-anchor="middle" font-size="7.5" fill="#065F46" font-weight="600">VPC config on AMG → private subnets → resolves Aurora hostnames over VPC Peering · Row-level security via SSO group → Aurora session context</text>
  <text x="829" y="354" text-anchor="middle" font-size="7.5" fill="#374151">grafana provider manages all data sources as Terraform resources · sg-db: port 5432 from 10.0.0.0/16 only</text>

  <rect x="570" y="372" width="518" height="20" rx="3" fill="#EDE9FE" stroke="#7C3AED" stroke-width="1"/>
  <text x="829" y="386" text-anchor="middle" font-size="7.5" fill="#5B21B6" font-weight="600">No ECS · No ALB · No custom API · No application code to maintain</text>
  <text x="829" y="400" text-anchor="middle" font-size="7" fill="#7C3AED" font-weight="600">Grafana IS the observability layer</text>

  <!-- Monitoring + SNS row -->
  <rect x="560" y="420" width="275" height="90" rx="6" fill="white" stroke="#DC2626" stroke-width="1.2" filter="url(#sh)"/>
  <text x="697" y="436" text-anchor="middle" font-size="8.5" font-weight="600" fill="#991B1B">CloudWatch · EventBridge · SNS</text>
  <text x="697" y="449" text-anchor="middle" font-size="7.5" fill="#374151">Peering state changes (seconds)</text>
  <text x="697" y="461" text-anchor="middle" font-size="7.5" fill="#374151">Aurora alarms (connections, latency)</text>
  <text x="697" y="473" text-anchor="middle" font-size="7.5" fill="#374151">Connectivity probe λ (1/min)</text>
  <text x="697" y="485" text-anchor="middle" font-size="7.5" fill="#374151">Route 53 HC monitors AMG endpoint</text>
  <text x="697" y="502" text-anchor="middle" font-size="7" fill="#DC2626">→ PagerDuty P1/P2 + Slack</text>

  <!-- Infra info -->
  <rect x="845" y="420" width="281" height="90" rx="6" fill="white" stroke="#475569" stroke-width="1" filter="url(#sh)"/>
  <text x="985" y="436" text-anchor="middle" font-size="8.5" font-weight="600" fill="#1E293B">Infrastructure</text>
  <text x="985" y="450" text-anchor="middle" font-size="7.5" fill="#374151">VPC: eu-west-1a/b/c · NAT GW ×3</text>
  <text x="985" y="462" text-anchor="middle" font-size="7.5" fill="#374151">Flow Logs 90d (EU: 365d GDPR)</text>
  <text x="985" y="474" text-anchor="middle" font-size="7.5" fill="#374151">KMS encrypted · Secrets Manager 30d</text>
  <text x="985" y="486" text-anchor="middle" font-size="7.5" fill="#374151">CloudTrail WORM · AWS Config drift</text>
  <text x="985" y="498" text-anchor="middle" font-size="7" fill="#475569">DataRegion tags · sg-db dual-CIDR</text>

  <!-- Deploy note -->
  <rect x="560" y="522" width="566" height="26" rx="4" fill="#EEF2FF" stroke="#6366F1" stroke-width="1"/>
  <text x="843" y="536" text-anchor="middle" font-size="7.5" fill="#3730A3" font-weight="600">Deployment: terraform apply · terraform.tfvars per environment · make deploy-all (regional → dr → central)</text>
  <text x="843" y="548" text-anchor="middle" font-size="7.5" fill="#3730A3">grafana provider + aws provider in single apply · data sources created alongside VPC Peering</text>

  <!-- AMP → Grafana -->
  <line x1="654" y1="200" x2="718" y2="260" stroke="#DC2626" stroke-width="1.3" stroke-dasharray="4,3" marker-end="url(#arr)"/>
  <text x="672" y="234" font-size="7" fill="#DC2626">metrics</text>

  <!-- ══ ROUTE 53 ══ -->
  <rect x="632" y="660" width="160" height="90" rx="8" fill="#FFFBEB" stroke="#D97706" stroke-width="1.5" filter="url(#sh)"/>
  <text x="712" y="676" text-anchor="middle" font-size="9" font-weight="700" fill="#92400E">Route 53</text>
  <text x="712" y="690" text-anchor="middle" font-size="8" fill="#374151">Active-Passive Failover</text>
  <rect x="642" y="698" width="66" height="16" rx="3" fill="#059669"/>
  <text x="675" y="709" text-anchor="middle" font-size="7.5" fill="white" font-weight="700">PRIMARY</text>
  <rect x="714" y="698" width="66" height="16" rx="3" fill="#6B7280"/>
  <text x="747" y="709" text-anchor="middle" font-size="7.5" fill="white" font-weight="700">DR</text>
  <text x="712" y="740" text-anchor="middle" font-size="7" fill="#D97706">HC: 10s × 3 + TTL 30s</text>
  <text x="712" y="750" text-anchor="middle" font-size="7" fill="#D97706">RTO ~60s · automated</text>
  <!-- R53 ↔ Primary -->
  <line x1="712" y1="660" x2="712" y2="642" stroke="#D97706" stroke-width="1.5" marker-end="url(#arrO)"/>

  <!-- ══ DR PLATFORM (us-east-1) ══ -->
  <rect x="548" y="760" width="590" height="200" rx="10" fill="#FFF7ED" stroke="#EA580C" stroke-width="2" filter="url(#sh)"/>
  <rect x="548" y="760" width="590" height="28" rx="10" fill="#EA580C"/>
  <rect x="548" y="774" width="590" height="14" fill="#EA580C"/>
  <text x="843" y="778" text-anchor="middle" font-size="11" font-weight="700" fill="white">DR / FAILOVER — us-east-1 · 10.5.0.0/16 · SAME AWS account</text>
  <rect x="558" y="782" width="82" height="13" rx="3" fill="#9A3412"/>
  <text x="599" y="792" text-anchor="middle" font-size="7.5" fill="white" font-weight="700">WARM STANDBY</text>

  <!-- DR Grafana -->
  <rect x="560" y="802" width="270" height="80" rx="6" fill="white" stroke="#7C3AED" stroke-width="1.5"/>
  <text x="695" y="818" text-anchor="middle" font-size="9" font-weight="600" fill="#5B21B6">Grafana AMG (us-east-1)</text>
  <text x="695" y="832" text-anchor="middle" font-size="7.5" fill="#374151">Identical PostgreSQL data sources</text>
  <text x="695" y="844" text-anchor="middle" font-size="7.5" fill="#374151">All 4 regional Aurora pre-configured</text>
  <text x="695" y="856" text-anchor="middle" font-size="7.5" fill="#374151">Same SSO auth · same RBAC</text>
  <text x="695" y="870" text-anchor="middle" font-size="7" fill="#7C3AED">4× VPC Peering (pre-established)</text>

  <!-- DR AMP -->
  <rect x="840" y="802" width="284" height="80" rx="6" fill="white" stroke="#DC2626" stroke-width="1.3"/>
  <text x="982" y="818" text-anchor="middle" font-size="9" font-weight="600" fill="#991B1B">AMP + CloudWatch (us-east-1)</text>
  <text x="982" y="832" text-anchor="middle" font-size="7.5" fill="#374151">Same recording rules · Alert Manager</text>
  <text x="982" y="844" text-anchor="middle" font-size="7.5" fill="#374151">CIDR 10.5.0.0/16 · same account</text>
  <text x="982" y="856" text-anchor="middle" font-size="7.5" fill="#374151">No cross-account IAM for DR</text>
  <text x="982" y="870" text-anchor="middle" font-size="7" fill="#DC2626">Monitoring continues during failover</text>

  <!-- R53 → DR -->
  <line x1="750" y1="750" x2="780" y2="760" stroke="#EA580C" stroke-width="1.5" stroke-dasharray="4,3" marker-end="url(#arrO)"/>

  <!-- ══ TEAMS ══ -->
  <!-- Team A -->
  <rect x="1155" y="100" width="395" height="140" rx="8" fill="white" stroke="#6EE7B7" stroke-width="1.5" filter="url(#sh)"/>
  <rect x="1155" y="100" width="395" height="22" rx="8" fill="#059669"/>
  <rect x="1155" y="114" width="395" height="8" fill="#059669"/>
  <text x="1352" y="116" text-anchor="middle" font-size="10" font-weight="700" fill="white">Team A</text>
  <!-- User icons -->
  <circle cx="1190" cy="158" r="14" fill="#DCFCE7" stroke="#059669" stroke-width="1.5"/>
  <text x="1190" y="163" text-anchor="middle" font-size="11">👤</text>
  <text x="1190" y="178" text-anchor="middle" font-size="7.5" fill="#065F46">User 1</text>
  <circle cx="1240" cy="158" r="14" fill="#DCFCE7" stroke="#059669" stroke-width="1.5"/>
  <text x="1240" y="163" text-anchor="middle" font-size="11">👤</text>
  <text x="1240" y="178" text-anchor="middle" font-size="7.5" fill="#065F46">User 2</text>
  <circle cx="1290" cy="158" r="14" fill="#DCFCE7" stroke="#059669" stroke-width="1.5"/>
  <text x="1290" y="163" text-anchor="middle" font-size="11">👤</text>
  <text x="1290" y="178" text-anchor="middle" font-size="7.5" fill="#065F46">User 3</text>
  <rect x="1165" y="186" width="375" height="18" rx="3" fill="#DCFCE7" stroke="#6EE7B7" stroke-width="1"/>
  <text x="1352" y="198" text-anchor="middle" font-size="7.5" fill="#065F46">Grafana · AWS SSO · sees authorised regions only</text>
  <text x="1352" y="210" text-anchor="middle" font-size="7" fill="#6B7280" font-style="italic">SSO group → session context → Aurora RLS</text>
  <text x="1352" y="228" text-anchor="middle" font-size="7" fill="#6B7280" font-style="italic">Reviews events · rates safety incidents</text>

  <!-- Team B -->
  <rect x="1155" y="258" width="395" height="140" rx="8" fill="white" stroke="#93C5FD" stroke-width="1.5" filter="url(#sh)"/>
  <rect x="1155" y="258" width="395" height="22" rx="8" fill="#2563EB"/>
  <rect x="1155" y="272" width="395" height="8" fill="#2563EB"/>
  <text x="1352" y="274" text-anchor="middle" font-size="10" font-weight="700" fill="white">Team B</text>
  <circle cx="1190" cy="316" r="14" fill="#DBEAFE" stroke="#2563EB" stroke-width="1.5"/>
  <text x="1190" y="321" text-anchor="middle" font-size="11">👤</text>
  <text x="1190" y="336" text-anchor="middle" font-size="7.5" fill="#1E40AF">User 1</text>
  <circle cx="1240" cy="316" r="14" fill="#DBEAFE" stroke="#2563EB" stroke-width="1.5"/>
  <text x="1240" y="321" text-anchor="middle" font-size="11">👤</text>
  <text x="1240" y="336" text-anchor="middle" font-size="7.5" fill="#1E40AF">User 2</text>
  <circle cx="1290" cy="316" r="14" fill="#DBEAFE" stroke="#2563EB" stroke-width="1.5"/>
  <text x="1290" y="321" text-anchor="middle" font-size="11">👤</text>
  <text x="1290" y="336" text-anchor="middle" font-size="7.5" fill="#1E40AF">User 3</text>
  <rect x="1165" y="344" width="375" height="18" rx="3" fill="#DBEAFE" stroke="#93C5FD" stroke-width="1"/>
  <text x="1352" y="356" text-anchor="middle" font-size="7.5" fill="#1E40AF">Grafana · AWS SSO · sees authorised regions only</text>
  <text x="1352" y="368" text-anchor="middle" font-size="7" fill="#6B7280" font-style="italic">Reviews events · monitors device fleet health</text>
  <text x="1352" y="386" text-anchor="middle" font-size="7" fill="#6B7280" font-style="italic">SSO group → session context → Aurora RLS</text>

  <!-- Team C -->
  <rect x="1155" y="416" width="395" height="140" rx="8" fill="white" stroke="#FCD34D" stroke-width="1.5" filter="url(#sh)"/>
  <rect x="1155" y="416" width="395" height="22" rx="8" fill="#D97706"/>
  <rect x="1155" y="430" width="395" height="8" fill="#D97706"/>
  <text x="1352" y="432" text-anchor="middle" font-size="10" font-weight="700" fill="white">Team C</text>
  <circle cx="1190" cy="474" r="14" fill="#FEF3C7" stroke="#D97706" stroke-width="1.5"/>
  <text x="1190" y="479" text-anchor="middle" font-size="11">👤</text>
  <text x="1190" y="494" text-anchor="middle" font-size="7.5" fill="#92400E">User 1</text>
  <circle cx="1240" cy="474" r="14" fill="#FEF3C7" stroke="#D97706" stroke-width="1.5"/>
  <text x="1240" y="479" text-anchor="middle" font-size="11">👤</text>
  <text x="1240" y="494" text-anchor="middle" font-size="7.5" fill="#92400E">User 2</text>
  <circle cx="1290" cy="474" r="14" fill="#FEF3C7" stroke="#D97706" stroke-width="1.5"/>
  <text x="1290" y="479" text-anchor="middle" font-size="11">👤</text>
  <text x="1290" y="494" text-anchor="middle" font-size="7.5" fill="#92400E">User 3</text>
  <rect x="1165" y="502" width="375" height="18" rx="3" fill="#FEF3C7" stroke="#FCD34D" stroke-width="1"/>
  <text x="1352" y="514" text-anchor="middle" font-size="7.5" fill="#92400E">Grafana · AWS SSO · sees authorised regions only</text>
  <text x="1352" y="526" text-anchor="middle" font-size="7" fill="#6B7280" font-style="italic">Reviews events · rates safety incidents</text>
  <text x="1352" y="544" text-anchor="middle" font-size="7" fill="#6B7280" font-style="italic">SSO group → session context → Aurora RLS</text>

  <!-- Teams access Grafana via browser + AWS SSO -->
  <!-- Arrows from each team to the Grafana platform -->
  <line x1="1155" y1="170" x2="1138" y2="300" stroke="#7C3AED" stroke-width="1.8" stroke-dasharray="6,3" marker-end="url(#arrP)"/>
  <line x1="1155" y1="330" x2="1138" y2="380" stroke="#7C3AED" stroke-width="1.8" stroke-dasharray="6,3" marker-end="url(#arrP)"/>
  <line x1="1155" y1="490" x2="1138" y2="450" stroke="#7C3AED" stroke-width="1.8" stroke-dasharray="6,3" marker-end="url(#arrP)"/>
  <!-- SSO label in gap -->
  <rect x="1100" y="368" width="58" height="28" rx="4" fill="#F5F3FF" stroke="#7C3AED" stroke-width="1"/>
  <text x="1129" y="380" text-anchor="middle" font-size="7.5" fill="#5B21B6" font-weight="600">AWS SSO</text>
  <text x="1129" y="391" text-anchor="middle" font-size="7" fill="#7C3AED">browser</text>

  <!-- Legend -->
  <rect x="548" y="970" width="1000" height="36" rx="6" fill="white" stroke="#E2E8F0" stroke-width="1"/>
  <line x1="560" y1="988" x2="598" y2="988" stroke="#2563EB" stroke-width="2" stroke-dasharray="8,3"/>
  <text x="606" y="992" font-size="8" fill="#374151">Primary VPC Peering (non-transitive)</text>
  <line x1="780" y1="988" x2="818" y2="988" stroke="#EA580C" stroke-width="1.8" stroke-dasharray="5,4"/>
  <text x="826" y="992" font-size="8" fill="#374151">DR peering (pre-established · same account)</text>
  <text x="560" y="1002" font-size="7.5" fill="#6B7280" font-style="italic">EU · US · CA · APAC have no network path between them. Data stays in origin region. Grafana queries in-place over VPC Peering.</text>
</svg>
